<svg xmlns="http://www.w3.org/2000/svg" width="151" height="54" viewBox="0 0 151 54" fill="none"><path d="M72.6499 10.7159C70.0165 9.85342 68.6617 9.02553 68.6617 7.22001C68.6617 5.63909 69.4478 4.32599 71.8984 4.32599C72.7608 4.32599 73.629 4.54484 74.1905 4.88751C74.4166 5.41448 74.4915 5.7154 74.5663 6.24237C74.683 7.14513 74.7175 7.74697 75.0184 7.97302C75.436 8.23363 76.523 8.38337 76.7908 8.42513C76.8657 8.08245 77.0514 7.25456 77.0514 6.20206C77.0514 5.07325 76.9003 4.4714 75.7715 4.09417C74.7924 3.72414 73.6305 3.49233 71.8581 3.49233C68.3276 3.49233 66.1046 5.33961 66.1046 8.04933C66.1046 10.7591 67.5343 12.3731 71.1468 13.5437C74.3835 14.5558 75.2114 15.4586 75.2114 17.0395C75.2114 18.9962 73.7068 20.1999 71.0719 20.1999C69.4507 19.8241 68.1361 18.6607 66.9742 16.1771C66.2975 16.5125 65.6885 17.231 65.6885 18.285C65.6885 19.2223 66.2557 19.9335 67.2003 20.3511C68.1721 20.8032 69.3413 21.0278 71.2231 21.0278C74.5692 21.0278 77.8045 19.2554 77.8045 15.9107C77.8462 12.9001 75.7383 11.813 72.6528 10.7173L72.6499 10.7159Z" fill="#FFF8EE"></path><path d="M106.058 19.7464C105.573 19.11 105.456 17.7148 105.456 15.532V10.114C105.456 6.5433 104.293 3.83357 100.414 3.83357C97.2937 3.83357 95.7474 5.6391 94.9267 7.22001C94.4343 5.37273 93.0045 3.83357 90.4114 3.83357C87.2842 3.83357 85.8213 5.63909 85.0266 7.07027C84.8754 5.7154 84.2404 4.28567 83.4125 3.68383C82.5443 3.94444 81.2298 4.81264 80.8122 5.33961C82.1671 7.29632 82.0922 10.1558 82.0922 11.9627C82.0922 16.6292 81.941 18.8047 81.7913 19.7492L79.7597 20.125V20.652H84.3916C84.7069 20.0502 85.0481 19.5577 85.4455 19.12C85.3433 18.0589 85.2943 16.4593 85.2943 13.9958V9.81599C85.2943 9.02985 85.1432 5.64197 89.2423 5.64197C92.0269 5.64197 92.1435 8.42657 92.1435 10.1572V15.1246C92.1435 15.5968 92.1363 16.0345 92.1291 16.4247C92.9916 16.8221 93.6957 17.5737 93.7302 18.2922C93.7302 18.6838 93.4725 18.9559 93.1543 19.1474C92.7799 19.372 92.3811 19.5563 91.9664 19.6931C91.5518 19.8299 91.1184 19.8918 90.6893 19.9753C90.433 20.0257 90.1767 20.0761 89.919 20.1265V20.6534H97.671V20.1265L95.5976 19.7507C95.4133 18.7313 95.337 17.0827 95.337 15.2009V9.48195C95.337 8.35314 95.5631 5.64341 99.285 5.64341C102.07 5.64341 102.221 8.46256 102.221 9.93261V14.8251C102.221 17.0078 102.111 19.6758 102.713 20.6549H108.131V20.1279L106.058 19.7521V19.7464Z" fill="#FFF8EE"></path><path d="M122.539 13.7265C122.539 12.9404 122.691 9.66193 122.691 8.57487C122.691 4.77089 120.583 3.7587 118.101 3.64208C115.617 3.53265 111.785 5.52391 111.403 5.98177C111.067 6.80246 111.067 9.06009 111.403 9.88798C111.855 9.81311 112.832 9.5525 113.175 9.28614C113.476 9.06009 113.627 8.87579 113.66 7.89672C113.702 7.29488 113.735 6.72615 113.777 6.35036C113.777 5.94002 113.961 5.59734 114.379 5.37129C114.864 5.11069 115.542 4.80976 116.561 4.80976C119.38 4.80976 119.647 6.72471 119.607 8.6483L119.532 11.6589C118.855 11.5423 117.54 11.4675 115.994 11.7338C110.315 12.6711 109.973 15.4212 109.973 17.2281C109.973 19.0351 111.143 20.9083 114.229 20.9083C117.314 20.9083 118.97 18.691 119.497 17.0352C119.572 18.4649 120.208 20.3813 121.563 20.9832C122.466 20.7226 123.746 19.8947 124.164 19.3691C122.542 18.1655 122.542 15.5306 122.542 13.7251L122.539 13.7265ZM119.494 13.7668C119.494 18.2 116.861 18.8839 115.506 18.8839C114.452 18.8839 112.646 18.3166 112.831 15.4226C112.906 13.5005 113.96 12.8223 115.69 12.5977C117.271 12.4134 119.494 12.5631 119.494 12.5631V13.7668Z" fill="#FFF8EE"></path><path d="M136.989 4.01786C136.278 3.90844 134.881 3.86669 134.471 3.943C133.151 4.16905 131.987 5.94145 131.495 7.59579C131.42 6.20062 130.968 4.61971 129.689 3.68239C128.827 3.943 127.507 4.8112 127.096 5.33817C128.451 7.29488 128.376 10.1543 128.376 11.9613C128.376 16.6277 128.225 18.8033 128.075 19.7478L126.044 20.1236V20.6506H135.109V20.1236L131.797 19.7478C131.646 18.7284 131.571 17.005 131.571 13.9943C131.571 11.4358 131.613 9.77999 131.613 9.36245C131.613 8.08245 132.14 6.76935 133.419 6.69448C134.02 6.65272 135.3 6.69447 136.052 6.76934C136.914 6.84421 137.332 5.90114 137.591 5.18843C137.934 4.24392 137.633 4.13449 136.989 4.01786Z" fill="#FFF8EE"></path><path d="M150.194 18.1669C149.818 18.6593 148.804 19.2208 147.451 19.2208C144.44 19.2208 144.023 16.4362 144.023 13.4673C144.023 10.4985 144.065 7.59724 144.214 5.48935C146.062 5.37273 147.601 5.48936 149.441 5.56423C149.667 5.22155 149.858 4.54484 149.742 4.16905C147.785 4.09418 145.945 4.05962 144.255 4.13449C144.255 3.11511 144.406 1.57595 144.548 0.111664C144.548 -0.00496025 144.178 -0.0798318 143.987 0.146218C142.707 2.36929 140.039 4.32599 139.019 5.41449C138.868 5.59878 138.793 6.20062 139.136 6.01633C139.698 5.71541 140.566 5.67365 141.018 5.67365C140.943 7.4043 140.826 10.6064 140.826 14.0274C140.826 19.2208 142.482 21.0264 145.944 21.0264C148.537 21.0264 149.966 19.5218 150.493 18.6176L150.192 18.1655L150.194 18.1669Z" fill="#FFF8EE"></path><path d="M77.0141 27.697C75.5771 27.697 73.9285 29.4694 72.5535 31.4808C71.7947 32.6168 70.7811 34.2654 70.1116 35.819C70.5695 33.9573 71.1512 31.0849 71.1512 29.6206C71.1512 28.4918 70.8776 27.7877 70.1721 27.7877C69.2276 27.7877 67.7906 28.9856 66.6013 30.8459C66.204 31.4203 65.8354 32.0639 65.6568 32.5564C65.7116 32.7349 65.8354 32.768 65.9578 32.7075C66.0816 32.6802 66.2932 32.3721 66.4502 32.0639C67.6683 29.6551 68.3378 29.0735 68.7971 29.0735C69.1325 29.0735 69.1945 29.1008 69.1945 29.7444C69.1945 31.9473 68.4357 35.8535 67.8813 38.5704C67.2104 41.9569 66.8476 44.2145 66.2054 46.8422C65.8973 48.1279 65.042 52.6172 62.2992 52.6172C61.3475 52.6172 60.6506 51.5431 59.5218 51.5431C59.2137 51.5431 58.9675 51.7893 58.9675 52.1594C58.9675 52.7339 59.5492 53.2882 60.9242 53.2882C65.317 53.2882 67.1499 49.3474 67.8554 46.9386C68.6488 44.1886 69.1081 41.5955 69.3816 40.1859C69.5659 40.5559 70.1476 41.165 71.7012 41.165C73.7817 41.165 75.7312 39.0297 76.5591 37.8059C78.0234 35.6707 78.6943 32.4628 78.6943 30.5133C78.6943 28.9266 78.1472 27.7013 77.0184 27.7013L77.0141 27.697ZM75.4548 36.6454C74.5995 38.8685 73.4433 40.6754 71.9445 40.8252C70.6919 40.5171 69.9878 39.8188 69.625 39.1766C69.7142 38.7792 69.8985 38.0132 70.0223 37.6173C70.843 35.0242 71.9718 33.2244 72.8616 31.7875C73.6823 30.4744 75.2431 28.5234 76.0983 28.5234C76.4957 28.5234 76.6455 28.5234 76.68 29.468C76.7419 31.6982 76.2495 34.5649 75.4548 36.6454Z" fill="#FFF8EE"></path><path d="M93.0449 18.3238C93.0449 18.5974 92.6475 18.9055 92.2789 18.9055C92.2098 18.9055 92.1076 18.858 91.9852 18.7817C91.4582 18.4736 90.5281 17.6802 89.7132 17.6802C89.0422 17.6802 88.1265 18.0503 87.5779 18.6319C87.3389 18.8652 87.0711 19.3432 86.7976 19.9868C86.7155 20.1927 86.6262 20.4115 86.537 20.6506C86.0445 22.0126 85.5521 23.8455 85.1965 25.5905C84.8265 27.363 84.3412 29.5932 83.9165 32.1244C83.5738 34.0466 83.2398 36.0652 83.0886 38.3847C82.9648 40.0606 83.0613 40.458 83.4241 40.458C83.8819 40.458 84.8884 39.5135 85.8055 38.235C86.0172 37.9542 86.2979 37.4071 86.4146 37.3452C86.5384 37.2833 86.6608 37.3178 86.7227 37.5021C86.6334 37.7757 86.3872 38.1731 85.9913 38.7202C84.7055 40.5199 83.3031 41.1621 82.3586 41.1621C81.1953 41.1621 81.0729 40.0333 81.1679 38.3228C81.2572 36.8585 81.5653 34.6902 82.0231 32.1244C82.481 29.6206 83.09 26.8158 83.4874 25.317C84.0691 23.0939 84.5759 21.6771 85.1778 20.6506C85.3621 20.3295 85.5536 20.0487 85.7667 19.7953C86.1151 19.3648 86.5125 19.0092 86.9703 18.6593C88.557 17.4412 89.7132 16.7991 90.8492 16.7991C91.2869 16.7991 91.7318 16.956 92.1018 17.1749C92.636 17.4959 93.0247 17.961 93.0463 18.3238H93.0449Z" fill="#FFF8EE"></path><path d="M92.1004 17.1749C91.7303 16.956 91.2869 16.7991 90.8477 16.7991C89.7117 16.7991 88.5556 17.4427 86.9689 18.6593C86.511 19.0077 86.1136 19.3634 85.7652 19.7953C85.5536 20.0487 85.3621 20.3295 85.1763 20.6506C84.5745 21.6771 84.0677 23.0925 83.486 25.317C83.0886 26.8158 82.4796 29.6206 82.0217 32.1244C81.5638 34.6902 81.2557 36.8585 81.1665 38.3228C81.07 40.0333 81.1938 41.1621 82.3572 41.1621C83.3017 41.1621 84.7041 40.5185 85.9898 38.7202C86.3872 38.1731 86.6334 37.7757 86.7212 37.5021C86.6593 37.3178 86.5369 37.2833 86.4131 37.3452C86.2965 37.4071 86.0157 37.9542 85.8041 38.235C84.8869 39.515 83.8819 40.458 83.4226 40.458C83.0598 40.458 82.9648 40.0606 83.0872 38.3847C83.2383 36.0652 83.5724 34.0466 83.915 32.1244C84.3398 29.5932 84.825 27.363 85.195 25.5905C85.5507 23.8455 86.0431 22.0126 86.5355 20.6506C86.6248 20.4115 86.714 20.1927 86.7961 19.9868C87.0697 19.3432 87.336 18.8652 87.5765 18.6319C88.1236 18.0503 89.0408 17.6802 89.7117 17.6802C90.5252 17.6802 91.4568 18.4736 91.9838 18.7817C92.1076 18.8566 92.2098 18.9055 92.2775 18.9055C92.6475 18.9055 93.0434 18.5974 93.0434 18.3238C93.0233 17.961 92.6331 17.4959 92.0989 17.1749H92.1004Z" fill="#FFF8EE"></path><path d="M100.126 36.2149C99.9416 36.2149 99.7285 36.5504 99.5788 36.8585C98.5997 38.7533 97.684 39.849 97.2247 39.849C96.7394 39.849 96.7668 39.178 96.9511 37.7757C97.3485 34.539 98.4499 29.3197 99.0316 27.7316C98.8747 27.6351 98.7509 27.6351 98.5738 27.7863C98.1159 28.1563 97.5947 28.5522 97.1987 28.9842C97.0144 28.4918 96.4054 27.6365 94.5984 27.6365C92.5251 27.6365 90.5684 29.8942 89.7477 31.1194C88.2834 33.2547 87.6067 36.4007 87.6067 38.3574C87.6067 39.944 88.1611 41.1621 89.2899 41.1621C90.7268 41.1621 92.3135 39.3897 93.6554 37.4402C94.4487 36.2768 95.3385 34.9018 96.0095 33.5887C95.579 35.0875 95.2161 36.6469 94.9973 38.2954C94.8461 39.6978 94.908 41.1348 95.7633 41.1348C96.7078 41.1348 98.1173 39.944 99.3685 38.0766C99.7659 37.5021 100.067 36.9478 100.251 36.523C100.286 36.3387 100.286 36.2149 100.127 36.2149H100.126ZM93.353 37.1321C92.3739 38.5345 91.1501 40.0333 90.2949 40.0333C89.8975 40.0333 89.7477 40.0333 89.7132 39.0888C89.6585 36.8585 90.1106 34.3547 90.8492 32.2742C91.6425 30.0511 92.8606 28.1275 94.3594 27.9706C95.6121 28.2787 96.4328 29.2837 96.8014 29.9273C96.1304 32.8285 94.5984 35.2978 93.353 37.1321ZM97.6825 21.621L93.6251 26.1982L93.7418 26.3825L98.9956 23.3041L97.6825 21.621Z" fill="#FFF8EE"></path><path d="M106.817 27.5732C104.525 27.5732 102.391 29.0447 102.294 30.9668C102.232 32.3692 102.568 33.3483 104.402 34.7506C106.175 36.1256 107.09 36.9809 107.057 38.7187C107.03 39.7856 105.839 40.8871 104.648 40.8871C102.965 40.6409 102.048 38.533 100.954 38.533C100.618 38.6295 100.461 38.8411 100.434 39.1766C100.434 40.1211 102.145 41.3118 104.252 41.3118C106.36 41.3118 108.467 39.7583 108.556 37.7138C108.645 35.6678 107.639 34.9364 105.744 33.3756C104.553 32.4311 103.917 31.4808 103.917 30.2627C103.944 29.1958 104.588 28.1275 105.689 28.1275C106.818 28.2787 108.098 29.4075 108.618 29.4075C108.864 29.3801 109.165 29.1613 109.227 28.8258C109.227 28.463 108.769 27.5732 106.818 27.5732H106.817Z" fill="#FFF8EE"></path><path d="M120.185 28.4011C119.179 28.1549 117.134 27.9706 115.759 28.031C115.944 27.2103 116.436 24.8908 117.169 24.1522C117.169 24.0629 117.045 23.8513 116.861 24.0356C116.129 24.672 115.486 25.8627 114.392 26.9641C113.412 28.0037 112.4 28.6127 111.182 29.072C110.998 29.1339 110.936 29.6191 111.21 29.4694C111.729 29.2232 113.351 29.0447 113.713 29.0447C113.535 29.9546 113.289 31.0287 113.042 32.4585C112.796 33.8954 112.249 36.9809 112.222 38.3559C112.16 40.183 112.284 41.2226 114.541 41.2226C116.341 41.2226 118.174 38.5345 118.661 37.1925C118.722 37.0083 118.571 36.8571 118.387 37.0414C117.656 38.7519 115.856 40.7014 115.09 40.7014C114.324 40.7014 114.083 40.4278 114.083 38.6899C114.083 37.3149 114.481 34.7218 114.665 33.5858C114.939 31.848 115.397 29.8639 115.61 28.8863C117.136 28.797 118.633 28.8244 120.008 28.9482C120.309 28.9208 120.433 28.5782 120.187 28.4011H120.185Z" fill="#FFF8EE"></path><path d="M126.048 36.8585C125.924 37.1321 125.747 37.4675 125.563 37.7757C124.797 39.0557 123.763 40.4033 122.997 40.4033C122.662 40.4033 122.634 40.1845 122.662 39.7597C122.689 39.0283 123.455 35.6073 123.701 34.4439C124.099 32.5837 124.646 29.8941 124.522 28.6761C124.495 28.306 124.221 27.7315 123.763 27.7315C122.689 27.7315 120.924 28.8258 120.034 30.2008C119.822 30.5363 119.883 30.9668 120.158 30.8718C120.528 30.0784 121.498 28.8877 121.93 28.8877C122.293 28.8877 122.477 29.0447 122.477 29.6191C122.477 31.118 122.204 32.4585 121.834 34.1689C121.498 35.7902 120.889 37.9859 120.802 39.3004C120.74 40.2795 121.102 41.1607 122.238 41.1607C123.825 41.1607 125.105 39.3883 125.898 37.924C126.083 37.5885 126.234 37.253 126.356 36.9449C126.48 36.6713 126.205 36.5202 126.048 36.8556V36.8585ZM123.703 21.4713C122.971 21.4713 122.328 22.1422 122.328 22.9355C122.328 23.7289 122.971 24.3725 123.703 24.3725C124.434 24.3725 125.078 23.7289 125.078 22.9355C125.078 22.1422 124.434 21.4713 123.703 21.4713Z" fill="#FFF8EE"></path><path d="M133.684 27.9086C134.203 27.9086 134.874 28.0051 135.367 29.072C135.668 29.743 135.852 29.9546 136.277 29.9546C136.647 29.9546 136.92 29.7156 136.92 29.1958C136.92 28.1289 135.334 27.5746 134.205 27.5746C132.036 27.5746 130.572 29.1613 129.593 30.722C128.499 32.4599 127.793 34.8744 127.793 37.0442C127.793 39.8835 128.86 41.3133 130.817 41.3133C133.56 41.3133 135.429 38.0492 136.311 36.1271C136.311 36.0033 136.249 35.9428 136.127 36.0033C134.936 38.1111 133.472 39.9095 131.639 39.9095C130.113 39.9095 129.628 38.6568 129.628 36.8585C129.628 35.0602 130.202 32.6168 130.88 31.118C131.852 28.9223 132.83 28.1894 133.685 27.9086H133.684Z" fill="#FFF8EE"></path><path d="M149.776 36.2149C149.592 36.2149 149.379 36.5504 149.229 36.8585C148.25 38.7533 147.334 39.849 146.875 39.849C146.39 39.849 146.417 39.178 146.602 37.7757C146.999 34.539 148.1 29.3197 148.675 27.7315C148.524 27.6351 148.401 27.6351 148.217 27.7863C147.765 28.1563 147.245 28.5522 146.849 28.9842C146.665 28.4918 146.056 27.6365 144.249 27.6365C142.176 27.6365 140.219 29.8941 139.398 31.1194C137.934 33.2547 137.257 36.4006 137.257 38.3573C137.257 39.944 137.811 41.1621 138.94 41.1621C140.377 41.1621 141.964 39.3897 143.306 37.4402C144.099 36.2768 144.982 34.9018 145.66 33.5887C145.229 35.0875 144.867 36.6469 144.648 38.2954C144.497 39.6978 144.558 41.1348 145.414 41.1348C146.358 41.1348 147.768 39.944 149.012 38.0766C149.409 37.5021 149.716 36.9478 149.902 36.523C149.929 36.3387 149.929 36.2149 149.778 36.2149H149.776ZM142.996 37.1321C142.024 38.5344 140.801 40.0333 139.945 40.0333C139.548 40.0333 139.398 40.0333 139.364 39.0888C139.302 36.8585 139.761 34.3547 140.492 32.2742C141.286 30.0511 142.511 28.1275 144.008 27.9706C145.261 28.2787 146.082 29.2837 146.45 29.9273C145.774 32.8285 144.247 35.2977 142.995 37.1321H142.996Z" fill="#FFF8EE"></path><path d="M50.772 25.0126C50.7576 24.5533 50.7332 24.094 50.6929 23.6333C50.3819 19.7645 49.1955 16.0181 47.2042 12.6821C44.3534 7.88895 39.9245 4.12241 34.7412 2.06204L34.613 1.99293H34.5684C31.6485 0.861235 28.5601 0.288191 25.3911 0.288191C22.222 0.288191 19.3079 0.826681 16.4513 1.90366C11.0851 3.91939 6.5137 7.74929 3.57361 12.6821C1.58235 16.0181 0.401707 19.7631 0.0892684 23.6376C0.0503935 24.0926 0.0244769 24.5519 0.0100788 25.0112C0.00575934 25.2286 0 25.4503 0 25.6735C0 25.8967 0.00431953 26.0982 0.0100788 26.3113C0.168458 32.8783 2.80187 39.0263 7.48126 43.6769C8.11909 44.3147 8.79148 44.9122 9.49267 45.4709C9.6165 45.5702 9.74032 45.6681 9.86846 45.7617C9.87278 45.7661 9.87854 45.7718 9.88286 45.7718C10.1204 45.9504 10.3566 46.1274 10.5941 46.3002C10.8317 46.473 11.0779 46.6415 11.3212 46.8042C11.4551 46.8977 11.5876 46.987 11.7258 47.0662C11.864 47.1598 12.0023 47.2491 12.1405 47.3326C12.5955 47.6148 13.0548 47.8768 13.5241 48.123C13.5832 48.1576 13.648 48.1878 13.707 48.2224C13.8452 48.2958 13.9892 48.3664 14.1274 48.4355C14.2109 48.4743 14.2959 48.5147 14.3751 48.5535C14.4298 48.578 14.4845 48.6025 14.5378 48.627C14.7249 48.7205 14.9136 48.8141 15.1007 48.8933C15.2634 48.9668 15.4276 49.0373 15.5903 49.1064C15.6551 49.1366 15.7184 49.1611 15.7875 49.1899C15.9949 49.2734 16.2079 49.3584 16.4196 49.4376C16.5535 49.4923 16.6917 49.5412 16.8299 49.5902C17.0085 49.6492 17.1813 49.714 17.3584 49.773C17.3728 49.7774 17.3828 49.7831 17.3972 49.7874C17.4966 49.8177 17.5902 49.8522 17.6895 49.8767C17.7889 49.9113 17.8925 49.9458 17.9962 49.9761C18.0552 49.9905 18.1099 50.0106 18.169 50.025C18.1992 50.0293 18.2237 50.0394 18.2482 50.0495C18.431 50.0984 18.6139 50.1488 18.7967 50.1978C18.9105 50.2323 19.0242 50.2626 19.1423 50.2914C19.1668 50.2957 19.197 50.3058 19.2258 50.3115C19.4634 50.3706 19.7052 50.4253 19.9471 50.48C20.2193 50.539 20.4957 50.5937 20.7722 50.6427C20.8269 50.6571 20.8859 50.6672 20.9449 50.6772C20.9492 50.6772 20.955 50.6816 20.9593 50.6816C21.014 50.6916 21.063 50.7017 21.1177 50.7118C21.4345 50.7708 22.4222 50.8947 22.5949 50.9091L22.5993 28.222C22.5993 27.1047 22.4898 25.9931 22.2782 24.9306C22.0997 24.0206 21.8434 23.1265 21.5122 22.2669C20.2423 18.9165 17.9141 16.1491 14.9596 14.4689L14.7912 14.3695H14.7811C13.9849 13.9304 13.1656 13.5791 12.3205 13.317C13.5659 10.5353 15.6263 8.27626 18.1819 6.90268C19.9212 5.96393 21.8045 5.48879 23.7713 5.48879H27.1174C29.1576 5.48879 31.1057 6.00712 32.8997 7.02507L33.0725 7.12441H33.0768C35.4395 8.51239 37.3415 10.6923 38.5121 13.3314C38.5466 13.4149 38.5855 13.4941 38.6157 13.5791C38.5812 13.5892 38.5466 13.5992 38.5121 13.6093C37.7072 13.8613 36.9254 14.1924 36.1695 14.597C33.0753 16.2629 30.6349 19.0835 29.3059 22.5433C28.9791 23.3828 28.7185 24.2783 28.5299 25.1969C28.298 26.3041 28.1843 27.4545 28.1843 28.6064V50.9076H28.1886C28.3614 50.8875 28.717 50.8529 28.717 50.8529C29.0338 50.814 29.3549 50.7636 29.6659 50.7089C30.3584 50.5909 31.0452 50.4469 31.7162 50.2698C31.8198 50.2453 31.9292 50.2151 32.0372 50.1805C32.0473 50.1805 32.0574 50.1805 32.0675 50.1762C32.2359 50.1316 32.3986 50.0869 32.5613 50.0322C32.6405 50.0121 32.7139 49.9933 32.7888 49.9674C33.0552 49.8882 33.323 49.8047 33.585 49.7111C33.8471 49.6219 34.1091 49.5283 34.3654 49.4289C34.6073 49.3397 34.8492 49.2461 35.0867 49.1467C36.1292 48.7119 37.1471 48.2123 38.1262 47.6392C38.2702 47.5557 38.4084 47.4665 38.5466 47.3772C38.561 47.3671 38.5768 47.357 38.5912 47.347C38.7352 47.2635 38.8735 47.1742 39.0117 47.0849C39.1211 47.0158 39.2291 46.9467 39.3385 46.8776C39.4076 46.833 39.4724 46.7941 39.5415 46.7494C39.6697 46.6602 39.7978 46.5709 39.9274 46.4773C39.9965 46.4327 40.0656 46.3837 40.1405 46.329C40.3536 46.1807 40.5609 46.0281 40.7682 45.8697C40.8129 45.8352 40.8575 45.8049 40.9021 45.7704L40.9266 45.7459C40.9266 45.7459 40.9367 45.7416 40.9367 45.7358C41.0648 45.6365 41.193 45.5386 41.3226 45.4349C42.0137 44.8863 42.6717 44.2989 43.2994 43.6711C47.9745 39.0205 50.6137 32.874 50.7706 26.3056C50.7749 26.0925 50.7807 25.8808 50.7807 25.6677C50.7807 25.4546 50.7764 25.2228 50.7706 25.0054L50.772 25.0126ZM9.46963 43.5041C9.1428 43.2219 8.8318 42.9253 8.52512 42.6244C4.1265 38.2459 1.64138 32.4593 1.48876 26.2725C1.48444 26.0752 1.48444 25.8722 1.48444 25.6749C1.48444 25.4374 1.48876 25.2056 1.49884 24.968C1.60827 21.213 2.59598 17.5458 4.38422 14.2644C4.38854 14.2544 4.3943 14.2443 4.39862 14.2342H4.4231C4.44326 14.2299 4.46773 14.2299 4.48789 14.2299H4.49221C4.68514 14.2198 4.88816 14.2155 5.08541 14.2155H8.43153C9.07369 14.2155 9.71152 14.2644 10.3335 14.3638C10.1305 14.957 9.97213 15.5747 9.84398 16.2024C9.61218 17.3096 9.49843 18.4557 9.49843 19.6119V43.53C9.48835 43.5257 9.47827 43.5156 9.46819 43.5055L9.46963 43.5041ZM14.2196 15.7561L14.3923 15.8554C16.9725 17.3672 19.0084 19.8279 20.1343 22.7982C20.4352 23.5786 20.6685 24.3949 20.8312 25.2199C21.0241 26.1933 21.1235 27.2011 21.1235 28.2248V49.2072H21.1134C21.0745 49.2029 21.04 49.1928 20.9996 49.1827C20.5951 49.1136 20.1948 49.0301 19.7988 48.9308C19.7787 48.9264 19.7643 48.9207 19.7441 48.9164C19.5166 48.8616 19.2891 48.8026 19.0674 48.7378C17.7183 48.3678 16.4038 47.8725 15.1382 47.275C14.3074 46.8747 13.4982 46.4356 12.7121 45.946C12.4011 45.743 12.0901 45.5414 11.7834 45.3284C11.6797 45.2549 11.5703 45.18 11.4667 45.1009C11.304 44.9871 11.1398 44.8691 10.9829 44.7452V19.6119C10.9829 18.5594 11.0865 17.5112 11.2996 16.499C11.4235 15.8813 11.5818 15.2838 11.7791 14.705H11.7834C12.6185 14.957 13.4334 15.3083 14.2196 15.7575V15.7561ZM33.6541 5.74939L33.4814 5.65004H33.4713C31.4944 4.56299 29.3592 4.0101 27.1217 4.0101H23.7756C21.5612 4.0101 19.4418 4.54427 17.4851 5.60109C14.5651 7.16761 12.2326 9.76647 10.8634 12.9542C10.0729 12.8059 9.25798 12.7325 8.43153 12.7325H5.29418C8.06582 8.42888 12.1923 5.09716 16.9768 3.29452C19.6649 2.28665 22.4913 1.77695 25.3925 1.77695C28.2937 1.77695 31.3476 2.32552 34.1293 3.4169L34.2574 3.48601H34.3021C38.8835 5.33473 42.8358 8.60022 45.4995 12.757C45.5585 12.8405 45.6132 12.9254 45.6679 13.0089H42.4658C41.6552 13.0089 40.8604 13.0824 40.0786 13.2263C40.044 13.1428 40.0095 13.0536 39.9749 12.97C38.6604 9.88165 36.4315 7.32599 33.6541 5.75083V5.74939ZM29.6716 28.6093C29.6716 27.5568 29.7753 26.5086 29.9884 25.4964C30.1568 24.6613 30.393 23.8464 30.6953 23.0804C31.8961 19.9517 34.0947 17.4018 36.8779 15.9101C37.5791 15.53 38.3062 15.2233 39.052 14.9959C39.0765 14.9858 39.1067 14.9815 39.1312 14.9714C39.2896 15.471 39.4177 15.985 39.517 16.4933C39.7143 17.4666 39.8136 18.4802 39.8136 19.4981V44.7351C36.8332 46.9885 33.3446 48.5247 29.6831 49.1971H29.6731V28.6107L29.6716 28.6093ZM49.2948 26.2725C49.1422 32.4593 46.6513 38.2459 42.2527 42.6244C41.9518 42.921 41.6451 43.2118 41.324 43.4897C41.3139 43.4998 41.3039 43.5099 41.2938 43.5142V19.4981C41.2938 18.3809 41.1843 17.2751 40.9727 16.2067C40.869 15.6826 40.7351 15.1586 40.5767 14.6445C41.1944 14.5409 41.8265 14.4919 42.4643 14.4919H45.8105C45.9732 14.4919 46.1315 14.4962 46.2942 14.502H46.2986C46.3187 14.502 46.3331 14.502 46.3533 14.5063C46.4123 14.5063 46.467 14.5106 46.526 14.5164C48.2308 17.7329 49.1796 21.3065 49.2833 24.968C49.2934 25.1998 49.2977 25.4374 49.2977 25.6749C49.2977 25.8722 49.2977 26.0752 49.2934 26.2725H49.2948Z" fill="#FFF8EE"></path></svg>