<svg xmlns="http://www.w3.org/2000/svg" width="150" height="150" viewBox="0 0 150 150" fill="none"><g id="Icon-SmartPlasticaSmartLovers"><g id="base"><path d="M48.3811 53.6448C59.7282 57.7122 67.2559 68.3503 67.2559 80.5273V121.037C66.7969 120.957 66.3358 120.875 65.8811 120.787C65.8706 120.782 65.8578 120.782 65.8453 120.778C65.6136 120.73 65.3749 120.681 65.1432 120.633C65.1288 120.628 65.1165 120.624 65.1042 120.624L64.4466 120.474H64.4379L64.3642 120.454H64.3555C64.1323 120.401 63.9091 120.348 63.686 120.291C63.4775 120.238 63.2663 120.186 63.0599 120.129C63.0349 120.125 63.0078 120.117 62.9829 120.109C62.7806 120.056 62.5841 120.003 62.3861 119.946C62.382 119.946 62.3782 119.945 62.3741 119.941C62.2499 119.91 62.1274 119.876 62.0052 119.836C61.8915 119.805 61.7816 119.775 61.6721 119.74C61.5795 119.712 61.4892 119.687 61.4008 119.655C61.2703 119.617 61.1331 119.578 61.0026 119.533C60.9415 119.517 60.8803 119.493 60.8192 119.476C60.5792 119.398 60.3411 119.318 60.1053 119.24C59.9537 119.188 59.8001 119.135 59.6506 119.082C59.4526 119.017 59.2562 118.945 59.0582 118.872C58.7338 118.751 58.4138 118.633 58.0979 118.507C57.9926 118.467 57.8908 118.429 57.7897 118.389C57.7374 118.368 57.6892 118.349 57.6411 118.328C57.4536 118.254 57.2633 118.179 57.0801 118.101C56.602 117.901 56.1261 117.694 55.6565 117.479L55.6586 117.482C55.5977 117.456 55.5407 117.429 55.4839 117.403C55.3655 117.346 55.2459 117.289 55.1259 117.232C55.0228 117.182C55.0082 117.178 54.9952 117.17 54.9826 117.166C54.7806 117.071 54.5803 116.974 54.3783 116.873C54.1107 116.736 53.8385 116.601 53.571 116.459C53.5584 116.455 53.5432 116.447 53.5265 116.439C53.3897 116.369 53.2488 116.293 53.1142 116.22C53.0004 116.159 52.8861 116.097 52.7724 116.036C52.6737 115.984 52.5771 115.931 52.4805 115.875C52.3815 115.818 52.2801 115.764 52.1832 115.707L51.2706 115.181C51.2546 115.168 51.2454 115.165 51.237 115.161C51.197 115.14 51.1597 115.111 51.1198 115.09L50.7259 114.855C50.5764 114.762 50.4284 114.676 50.2789 114.579C50.0598 114.442 49.8448 114.302 49.63 114.161C49.5606 114.121 49.4846 114.073 49.4151 114.02C49.3016 113.947 49.188 113.867 49.0744 113.793C48.9902 113.741 48.908 113.679 48.8238 113.622C48.7817 113.59 48.7367 113.566 48.6925 113.534C48.6526 113.503 48.6152 113.475 48.5753 113.449C48.4573 113.372 48.3429 113.294 48.2292 113.21C48.0586 113.09 47.892 112.972 47.7257 112.849C47.7005 112.833 47.6695 112.809 47.6421 112.792C47.5073 112.691 47.3745 112.594 47.2439 112.495C47.1956 112.459 47.147 112.43 47.1029 112.395C47.0207 112.334 46.9356 112.268 46.8576 112.207V63.151C46.8576 62.8787 46.8633 62.6067 46.8707 62.3351C46.9187 60.5519 47.1222 58.7876 47.475 57.0725L47.4685 57.0681C47.7066 55.8928 48.0125 54.7485 48.3811 53.6448Z" fill="#5B2C1E"/><path d="M101.672 53.6448C102.039 54.7632 102.342 55.9075 102.569 57.0681L102.574 57.0725C102.949 58.9681 103.142 60.9415 103.142 62.934V112.223C102.959 112.364 102.774 112.506 102.587 112.641C102.319 112.839 102.048 113.031 101.776 113.225C101.65 113.318 101.516 113.403 101.386 113.496C101.35 113.517 101.316 113.545 101.28 113.57C101.192 113.627 101.106 113.688 101.013 113.749C100.904 113.823 100.79 113.899 100.676 113.972C100.609 114.014 100.544 114.059 100.479 114.103C100.388 114.164 100.291 114.225 100.194 114.286C100.146 114.318 100.101 114.342 100.053 114.374C99.733 114.58 99.4128 114.781 99.0842 114.979C98.9937 115.036 98.8967 115.093 98.7999 115.145C98.7916 115.154 98.7765 115.162 98.7598 115.17C98.6818 115.219 98.6012 115.263 98.5232 115.311C98.2959 115.442 98.0624 115.579 97.8266 115.71C97.7846 115.735 97.7403 115.762 97.6921 115.783C97.6142 115.826 97.5334 115.869 97.4555 115.914C96.8806 116.23 96.3037 116.538 95.7162 116.826C95.6846 116.845 95.6525 116.858 95.6272 116.871C95.5704 116.902 95.5092 116.929 95.4525 116.954C95.2945 117.032 95.1406 117.108 94.9826 117.182C94.8984 117.222 94.8119 117.265 94.7277 117.3C94.5299 117.393 94.3341 117.483 94.1363 117.572C93.9825 117.643 93.8345 117.709 93.6849 117.775C93.5924 117.819 93.5019 117.852 93.4136 117.892C93.401 117.9 93.3818 117.905 93.3691 117.909C93.2555 117.962 93.142 118.01 93.0284 118.054C92.9926 118.073 92.9622 118.086 92.9264 118.099C92.8571 118.13 92.7851 118.162 92.7116 118.187C92.419 118.309 92.1242 118.427 91.8316 118.536C91.7221 118.578 91.6124 118.623 91.5028 118.663C91.3449 118.724 91.1909 118.781 91.033 118.838C90.9552 118.869 90.873 118.901 90.7888 118.926C90.7151 118.955 90.6434 118.983 90.5697 119.004C90.4349 119.057 90.3019 119.101 90.1671 119.145C90.0787 119.181 89.9885 119.213 89.9002 119.238C89.6959 119.314 89.4892 119.379 89.2828 119.444C89.0806 119.51 88.8806 119.571 88.6784 119.632C88.6574 119.641 88.63 119.649 88.6089 119.653C88.4321 119.71 88.2574 119.763 88.0827 119.811C88.0174 119.832 87.9449 119.851 87.8754 119.868C87.8587 119.876 87.8401 119.881 87.8234 119.885C87.8024 119.893 87.7791 119.897 87.7539 119.906C87.6719 119.927 87.5938 119.95 87.5098 119.971C87.3876 120.007 87.2587 120.041 87.1365 120.073C87.1007 120.087 87.0669 120.1 87.0269 120.104C87.0059 120.113 86.9784 120.121 86.9531 120.125C86.5192 120.243 86.085 120.348 85.651 120.449C85.6251 120.455 85.5989 120.461 85.5729 120.467C85.3374 120.524 85.1032 120.577 84.8655 120.628C84.6339 120.677 84.4003 120.725 84.1645 120.774H84.1558C84.1391 120.778 84.1203 120.782 84.0994 120.787C84.0678 120.791 84.0377 120.799 84.0061 120.803C83.8039 120.843 83.6038 120.881 83.4017 120.917C83.3891 120.921 83.3698 120.926 83.3572 120.926C83.1551 120.961 82.9592 120.995 82.7572 121.031H82.755V80.5306C82.7552 68.337 90.302 57.6932 101.672 53.6448Z" fill="#5B2C1E"/><path d="M115.893 52.7919C116.201 53.3438 116.488 53.9069 116.764 54.4672C116.905 54.7536 117.047 55.038 117.178 55.3223C117.197 55.3495 117.209 55.3787 117.218 55.4102C117.53 56.0631 117.819 56.7249 118.09 57.3948C118.115 57.4472 118.139 57.5039 118.155 57.5564C118.351 58.0388 118.54 58.5218 118.715 59.0126C118.808 59.2568 118.895 59.503 118.979 59.7472C119.154 60.238 119.316 60.7291 119.469 61.2283C119.547 61.4747 119.623 61.7231 119.693 61.9737C119.765 62.2096 119.834 62.4477 119.899 62.6877C119.945 62.8541 119.989 63.025 120.034 63.1999C120.086 63.3937 120.135 63.5856 120.188 63.7836C120.196 63.8172 120.204 63.8569 120.213 63.9008C120.27 64.1241 120.323 64.3525 120.375 64.5757C120.447 64.8831 120.516 65.1885 120.577 65.4959C120.617 65.679 120.655 65.8683 120.691 66.0514C120.738 66.2872 120.782 66.5297 120.826 66.7654C120.862 66.9423 120.894 67.1179 120.919 67.2928C120.944 67.4506 120.971 67.6091 120.996 67.7669C121.021 67.9395 121.049 68.1142 121.074 68.2888C121.161 68.885 121.241 69.4811 121.302 70.0814C121.319 70.233 121.338 70.391 121.351 70.5447C121.372 70.7552 121.39 70.9657 121.407 71.1762C121.426 71.3425 121.439 71.5091 121.447 71.6754C121.46 71.8017 121.468 71.9309 121.472 72.0573C121.51 72.6175 121.538 73.1843 121.551 73.7446H121.555L121.57 74.4238C121.574 74.6507 121.576 74.8778 121.576 75.1031C121.575 87.5813 116.704 99.3075 107.853 108.118C107.267 108.7 106.661 109.27 106.035 109.826V62.9297C106.035 60.7477 105.826 58.5868 105.413 56.5017C105.167 55.2569 104.843 54.0161 104.444 52.8071C105.723 52.4911 107.025 52.2572 108.336 52.1224C109.344 52.0171 110.347 51.964 111.324 51.964H115.434L115.893 52.7919Z" fill="#5B2C1E"/><path d="M38.7088 51.9661C39.4577 51.9662 40.1994 51.9959 40.9581 52.0551L41.7231 52.1246C43.0416 52.2657 44.3518 52.4934 45.6261 52.8136C45.2322 53.9994 44.9075 55.2313 44.6484 56.4887C44.2019 58.654 43.9746 60.8931 43.9746 63.1489V109.822C43.3533 109.27 42.748 108.702 42.1604 108.118C33.3095 99.3075 28.4332 87.5812 28.4332 75.1031C28.4332 74.6524 28.4422 74.1953 28.4549 73.7446C28.4675 73.1843 28.493 72.6176 28.533 72.0573C28.5372 71.9309 28.5453 71.8017 28.5579 71.6754C28.5664 71.5091 28.5813 71.3425 28.5981 71.1762C28.6149 70.9657 28.6335 70.7552 28.6545 70.5447C28.6672 70.3783 28.6866 70.212 28.7077 70.0456C28.7688 69.4579 28.8427 68.8723 28.9312 68.2888C28.9565 68.1121 28.983 67.9374 29.0082 67.7669C29.0335 67.609 29.0611 67.4506 29.0864 67.2928C29.118 67.1158 29.1481 66.9402 29.1797 66.7654C29.2218 66.5297 29.2658 66.2872 29.3142 66.0514C29.35 65.8683 29.3882 65.679 29.4282 65.4959C29.4955 65.1885 29.5605 64.8831 29.63 64.5757C29.6869 64.3314 29.7436 64.0845 29.8047 63.8444C29.8658 63.6001 29.9271 63.3532 29.9924 63.1131C30.0597 62.869 30.1248 62.627 30.1942 62.3872C30.2595 62.1429 30.3353 61.9003 30.4047 61.6645C30.4742 61.4245 30.5502 61.1863 30.6239 60.9505C30.6766 60.7926 30.7254 60.6386 30.778 60.4807C30.8433 60.2743 30.9148 60.074 30.9885 59.8676C31.0264 59.7497 31.0669 59.6318 31.1111 59.5139C31.1953 59.2782 31.281 59.04 31.3694 58.8043C31.7189 57.8629 32.1004 56.9294 32.5174 56.0091C32.7005 55.5985 32.8924 55.1894 33.0903 54.783C33.4399 54.0542 33.8172 53.3313 34.2068 52.6215C34.2848 52.4804 34.3634 52.3415 34.4477 52.1962L34.5822 51.9683H38.7001L38.7088 51.9661Z" fill="#5B2C1E"/><path d="M75.0011 28.5265C80.899 28.5265 86.6354 29.6132 92.0551 31.747L92.2993 31.8652H92.3557L93.1608 32.1984C101.436 35.7164 108.594 41.6267 113.62 49.0766H111.319C110.241 49.0766 109.137 49.1332 108.034 49.247C106.473 49.4092 104.927 49.6897 103.41 50.0836C100.851 44.0951 96.5227 39.1551 91.1198 36.084L90.7867 35.8963H90.7704C86.9095 33.771 82.7386 32.6932 78.3659 32.6931H71.8381C67.5137 32.6931 63.3803 33.7397 59.5551 35.7997C53.8806 38.8476 49.3372 43.8932 46.6558 50.0922C45.1436 49.6942 43.5893 49.4092 42.0117 49.247C41.1761 49.1617 40.3389 49.1088 39.5161 49.0875L38.6979 49.0766H36.377C41.7672 41.0892 49.58 34.8917 58.61 31.492C63.842 29.5248 69.1036 28.5265 75.0011 28.5265Z" fill="#5B2C1E"/><path fill-rule="evenodd" clip-rule="evenodd" d="M75.0011 21.837C104.362 21.837 128.163 45.6413 128.163 75.0022C128.163 104.363 104.362 128.163 75.0011 128.163C45.6405 128.163 21.8361 104.363 21.8359 75.0022C21.8359 45.6414 45.6404 21.8373 75.0011 21.837ZM75.0011 25.6369C69.0086 25.637 63.1508 26.6985 57.5901 28.788C47.3994 32.6258 38.6708 39.817 32.9351 49.0788C32.7856 49.3104 32.6422 49.5482 32.5011 49.7841C27.945 57.4113 25.5349 66.1721 25.5349 75.1053C25.535 88.3586 30.7111 100.812 40.1139 110.175C41.5588 111.611 43.111 112.97 44.7222 114.214C51.6353 119.586 59.8692 123.022 68.5221 124.157L70.1606 124.367V80.5328C70.1604 67.1469 61.8971 55.452 49.4401 50.957C51.8814 45.4826 55.9157 41.0405 60.9288 38.3507C64.3306 36.5203 68.0025 35.5914 71.8403 35.5914H78.3681C82.3551 35.5915 86.1547 36.6046 89.6636 38.597L89.9967 38.7847H90.0011C94.6225 41.5041 98.3513 45.7718 100.63 50.9429C88.1418 55.4253 79.8613 67.1237 79.8611 80.5306V124.357L81.4952 124.142C89.173 123.137 96.5161 120.32 102.905 115.952C103.263 115.709 103.619 115.461 103.968 115.206C104.41 114.886 104.849 114.558 105.283 114.221C106.704 113.113 108.07 111.931 109.349 110.699L109.889 110.17C119.288 100.812 124.468 88.3586 124.468 75.1053C124.468 66.1679 122.058 57.4134 117.502 49.7841C117.361 49.5482 117.218 49.3104 117.072 49.0788C111.491 40.074 103.037 32.9884 93.1836 29.0853L92.9395 28.967H92.8787C87.1915 26.7532 80.9938 25.6369 75.0011 25.6369Z" fill="#5B2C1E"/><path fill-rule="evenodd" clip-rule="evenodd" d="M75 0C116.355 0 150 33.6454 150 75C150 116.355 116.355 150 75 150C33.6454 150 0 116.355 0 75C0 33.6453 33.6453 0 75 0ZM75 2.28299C34.8376 2.28299 2.28082 34.8418 2.28082 75.0022C2.28088 115.162 34.8397 147.719 75 147.719C115.16 147.719 147.717 115.165 147.717 75.0022C147.717 34.8397 115.16 2.28301 75 2.28299Z" fill="#5B2C1E"/></g></g></svg>
