<svg xmlns="http://www.w3.org/2000/svg" width="150" height="150" viewBox="0 0 150 150" fill="none"><g id="Icon-SmartPlasticaRealizandoSonhosW"><g id="base"><path d="M48.3848 53.6449C59.7316 57.7125 67.2596 68.3513 67.2596 80.5281V121.038C66.8004 120.958 66.338 120.875 65.883 120.786C65.8727 120.782 65.8604 120.782 65.8481 120.778C65.6166 120.73 65.3787 120.682 65.1473 120.633C65.1328 120.629 65.1197 120.625 65.1073 120.625L64.4498 120.475H64.4415C64.4162 120.467 64.3918 120.462 64.3666 120.453H64.3582C64.1352 120.401 63.9121 120.349 63.6891 120.292C63.4805 120.239 63.2696 120.186 63.0632 120.129C63.038 120.125 63.0101 120.117 62.985 120.109C62.7829 120.056 62.5869 120.003 62.389 119.946C62.3851 119.946 62.3813 119.946 62.3774 119.942C62.2531 119.911 62.13 119.878 62.0078 119.838C61.8941 119.806 61.7844 119.775 61.6749 119.739C61.5825 119.712 61.4918 119.688 61.4036 119.656C61.273 119.618 61.1363 119.577 61.0057 119.533C60.9448 119.516 60.8836 119.493 60.8226 119.476C60.5826 119.398 60.3444 119.318 60.1085 119.24C59.9569 119.187 59.802 119.136 59.6524 119.083C59.4546 119.018 59.2593 118.946 59.0615 118.872C58.7372 118.752 58.4169 118.634 58.101 118.508C57.9957 118.468 57.8942 118.429 57.7931 118.389C57.7405 118.368 57.6916 118.35 57.6433 118.329C57.456 118.256 57.267 118.179 57.084 118.101C56.6058 117.901 56.1288 117.695 55.6591 117.48L55.6624 117.482C55.6015 117.457 55.5444 117.429 55.4876 117.404C55.365 117.344 55.2407 117.287 55.1164 117.227C55.1485 117.243 55.1808 117.257 55.213 117.272C55.1505 117.243 55.0875 117.213 55.0249 117.183C55.0104 117.178 54.9974 117.17 54.9849 117.166C54.7828 117.071 54.5827 116.974 54.3807 116.873C54.1132 116.736 53.8408 116.601 53.5733 116.46C53.5609 116.456 53.5466 116.447 53.5301 116.438C53.3933 116.369 53.2519 116.294 53.1172 116.22C53.0036 116.159 52.8896 116.098 52.776 116.037C52.677 115.985 52.5799 115.931 52.483 115.874C52.3842 115.817 52.2835 115.764 52.1867 115.708L52.1917 115.711L51.9237 115.556C51.7034 115.432 51.4828 115.309 51.2662 115.178C51.2578 115.17 51.248 115.164 51.2396 115.16C51.2001 115.139 51.1625 115.113 51.123 115.092L50.7285 114.855C50.5791 114.763 50.4319 114.676 50.2824 114.579C50.0635 114.442 49.8479 114.304 49.6332 114.163C49.5638 114.123 49.4879 114.074 49.4185 114.021C49.3048 113.948 49.191 113.867 49.0773 113.793C48.993 113.741 48.9102 113.68 48.8259 113.624C48.7838 113.592 48.7403 113.565 48.6961 113.534C48.6562 113.502 48.6178 113.476 48.5779 113.45C48.4599 113.373 48.3454 113.295 48.2316 113.211C48.0611 113.091 47.8953 112.972 47.7289 112.85C47.7149 112.841 47.7004 112.83 47.6857 112.82C47.6999 112.83 47.713 112.841 47.7273 112.851C47.7022 112.834 47.6712 112.811 47.644 112.795C47.5095 112.694 47.3766 112.597 47.2462 112.498C47.1978 112.463 47.1489 112.431 47.1047 112.395C47.0227 112.334 46.9395 112.268 46.8617 112.207V63.1514C46.8617 61.3488 47.0217 59.5606 47.3344 57.8181L47.4776 57.0756L47.4726 57.0706C47.7106 55.8954 48.0162 54.7519 48.3848 53.6482H48.3881L48.3848 53.6449Z" fill="#F0EAE1"/><path d="M101.675 53.6482C102.042 54.7666 102.345 55.9102 102.572 57.0706L102.577 57.0756C102.952 58.9711 103.145 60.9444 103.145 62.9367V112.227C102.962 112.368 102.776 112.509 102.589 112.643C102.322 112.841 102.05 113.034 101.778 113.227C101.652 113.32 101.519 113.406 101.389 113.499C101.353 113.52 101.32 113.547 101.284 113.572C101.195 113.629 101.109 113.691 101.016 113.752C100.907 113.825 100.793 113.901 100.68 113.975C100.613 114.017 100.547 114.061 100.482 114.105C100.391 114.166 100.294 114.227 100.197 114.288C100.149 114.319 100.104 114.346 100.055 114.378C99.7355 114.584 99.4151 114.784 99.0867 114.982C98.9962 115.039 98.8989 115.096 98.802 115.148C98.7936 115.157 98.7787 115.165 98.7621 115.173C98.6842 115.222 98.6036 115.266 98.5257 115.315C98.2986 115.445 98.0654 115.582 97.8299 115.713C97.788 115.738 97.7433 115.765 97.6951 115.786C97.6172 115.828 97.5367 115.873 97.4587 115.917C96.8838 116.233 96.3068 116.541 95.7192 116.83C95.6879 116.848 95.6561 116.86 95.631 116.873C95.5743 116.904 95.5129 116.933 95.4562 116.958C95.2982 117.036 95.1431 117.11 94.9851 117.184C94.9009 117.224 94.8147 117.267 94.7304 117.302C94.5326 117.395 94.3374 117.487 94.1395 117.575C93.9858 117.647 93.8379 117.712 93.6884 117.777C93.5959 117.821 93.5054 117.855 93.4171 117.895C93.4044 117.903 93.3848 117.907 93.3721 117.912C93.2585 117.964 93.1446 118.012 93.0309 118.056C92.9951 118.075 92.9652 118.089 92.9294 118.101C92.86 118.133 92.7882 118.164 92.7146 118.19C92.4219 118.312 92.1267 118.43 91.8341 118.539C91.7247 118.581 91.6155 118.626 91.5061 118.666C91.3483 118.727 91.1945 118.784 91.0367 118.84C90.9589 118.872 90.8762 118.903 90.792 118.929C90.7183 118.958 90.646 118.986 90.5723 119.007C90.4378 119.059 90.3056 119.104 90.1711 119.148C90.0828 119.184 89.9915 119.215 89.9031 119.24C89.6988 119.316 89.492 119.381 89.2856 119.446C89.0834 119.512 88.8835 119.573 88.6813 119.634C88.6602 119.643 88.6325 119.652 88.6114 119.656C88.4346 119.713 88.26 119.766 88.0854 119.814C88.0201 119.835 87.9484 119.854 87.879 119.871C87.8621 119.879 87.8426 119.883 87.8257 119.887C87.8047 119.896 87.7809 119.901 87.7558 119.909C87.6741 119.93 87.5965 119.953 87.5128 119.974C87.3907 120.01 87.262 120.044 87.1399 120.076C87.1041 120.09 87.07 120.103 87.03 120.107C87.0092 120.116 86.9818 120.123 86.9568 120.127C86.5231 120.245 86.0888 120.351 85.6551 120.452C85.6205 120.46 85.5849 120.467 85.5502 120.475C85.3235 120.53 85.0983 120.582 84.8694 120.632C84.6377 120.68 84.4028 120.728 84.1669 120.776H84.1586C84.1418 120.781 84.123 120.785 84.102 120.79C84.0704 120.794 84.0404 120.802 84.0088 120.806C83.8068 120.846 83.6066 120.884 83.4045 120.92C83.3922 120.924 83.3738 120.928 83.3613 120.928C83.1591 120.964 82.9609 120.997 82.7587 121.033V80.5331C82.7589 68.3395 90.3051 57.6967 101.675 53.6482Z" fill="#F0EAE1"/><path d="M115.896 52.7943C116.203 53.3461 116.492 53.9087 116.768 54.4689C116.909 54.7554 117.05 55.0401 117.181 55.3245C117.2 55.3518 117.212 55.3812 117.221 55.4127C117.533 56.0656 117.821 56.7271 118.093 57.3969C118.118 57.4496 118.141 57.5074 118.158 57.56C118.354 58.0422 118.544 58.5243 118.719 59.0149C118.812 59.2592 118.898 59.5064 118.982 59.7506C119.157 60.2412 119.319 60.7315 119.473 61.2305C119.551 61.4769 119.627 61.7256 119.696 61.9762C119.768 62.2121 119.837 62.4502 119.902 62.6903C119.949 62.8567 119.993 63.0282 120.037 63.203C120.09 63.3965 120.138 63.588 120.19 63.7856C120.199 63.8193 120.207 63.8596 120.215 63.9038C120.272 64.1271 120.326 64.3547 120.379 64.578C120.45 64.8854 120.519 65.191 120.58 65.4985C120.62 65.6817 120.659 65.8712 120.695 66.0545C120.741 66.2903 120.785 66.5327 120.83 66.7686C120.865 66.9453 120.896 67.12 120.921 67.2946C120.946 67.4525 120.974 67.611 120.999 67.769C121.025 67.9417 121.052 68.1169 121.078 68.2917C121.164 68.8877 121.245 69.4842 121.306 70.0845C121.323 70.2359 121.341 70.3937 121.354 70.5472C121.375 70.7578 121.394 70.9691 121.411 71.1798C121.43 71.346 121.442 71.5129 121.451 71.6791C121.463 71.8053 121.471 71.9342 121.476 72.0603C121.513 72.6203 121.541 73.1866 121.554 73.7466H121.557C121.57 74.1971 121.579 74.6543 121.579 75.1049C121.579 87.5829 116.707 99.3095 107.856 108.12C107.27 108.702 106.664 109.274 106.038 109.83V62.9334C106.038 60.7514 105.83 58.5898 105.417 56.5047C105.171 55.2598 104.846 54.0183 104.448 52.8093C105.727 52.4934 107.029 52.2599 108.339 52.1251C109.347 52.0199 110.349 51.967 111.326 51.967H115.436L115.896 52.7943Z" fill="#F0EAE1"/><path d="M38.7118 51.967C39.4605 51.967 40.2022 51.996 40.9607 52.0552L41.7264 52.1251C43.0446 52.2663 44.3542 52.4942 45.6282 52.8143C45.2344 54 44.9101 55.2324 44.6511 56.4897C44.2046 58.6549 43.9769 60.894 43.9769 63.1497V109.823C43.3556 109.272 42.7518 108.702 42.1642 108.119C33.3132 99.3078 28.4363 87.5814 28.4363 75.1032C28.4363 74.6525 28.4453 74.1956 28.4579 73.7449C28.4706 73.1846 28.4961 72.6173 28.5362 72.057C28.5404 71.9308 28.5485 71.802 28.5611 71.6758C28.5696 71.5096 28.5842 71.3426 28.6011 71.1764C28.6179 70.9661 28.6366 70.7558 28.6577 70.5455C28.6703 70.3791 28.6899 70.2126 28.7109 70.0462C28.772 69.4587 28.8456 68.8733 28.934 68.29C28.9593 68.1132 28.987 67.9379 29.0122 67.7673C29.0375 67.6094 29.0635 67.4509 29.0888 67.2929C29.1204 67.1162 29.1505 66.9416 29.182 66.7669C29.2241 66.5312 29.2684 66.2886 29.3169 66.0528C29.3526 65.8698 29.3901 65.6799 29.43 65.4968C29.4974 65.1895 29.5637 64.8837 29.6331 64.5763C29.6899 64.3322 29.7469 64.0855 29.8079 63.8455C29.869 63.6012 29.9307 63.3533 29.996 63.1131C30.0633 62.8692 30.128 62.6271 30.1974 62.3874C30.2627 62.143 30.3393 61.9008 30.4088 61.6649C30.4783 61.4249 30.5532 61.1867 30.6269 60.9508C30.6795 60.7929 30.7291 60.6393 30.7817 60.4814C30.8469 60.2752 30.9178 60.075 30.9914 59.8688C31.0293 59.751 31.0688 59.6321 31.1129 59.5143C31.1972 59.2784 31.2842 59.0394 31.3726 58.8035C31.7222 57.8622 32.1042 56.9289 32.5212 56.0086C32.7043 55.5981 32.8959 55.1898 33.0938 54.7835C33.4434 54.0548 33.8211 53.3326 34.2108 52.6228C34.2887 52.4817 34.3662 52.342 34.4505 52.1967L34.5853 51.9687H38.7035L38.7118 51.967Z" fill="#F0EAE1"/><path d="M75.005 28.5295C80.9026 28.5296 86.6376 29.6169 92.0571 31.7505L92.3018 31.867H92.3584C100.974 35.3383 108.436 41.3885 113.624 49.0789H111.323C110.245 49.0789 109.141 49.1367 108.037 49.2504C106.476 49.4126 104.93 49.6921 103.413 50.086C100.854 44.0978 96.5259 39.1579 91.1233 36.0868L90.7904 35.8987H90.7737C86.9129 33.7734 82.7417 32.6961 78.3691 32.696H71.8406C67.5162 32.696 63.3827 33.7421 59.5576 35.8021C53.8831 38.8501 49.34 43.8954 46.6586 50.0943C45.1464 49.6963 43.5919 49.4126 42.0144 49.2504C40.9001 49.1366 39.7829 49.0789 38.7002 49.0789H36.3797C41.7699 41.0916 49.5821 34.8938 58.6121 31.4941C63.8443 29.5268 69.1071 28.5295 75.005 28.5295Z" fill="#F0EAE1"/><path fill-rule="evenodd" clip-rule="evenodd" d="M75.005 21.8378C104.365 21.8381 128.165 45.6413 128.166 75.0017C128.166 104.362 104.366 128.164 75.005 128.164C45.6441 128.164 21.8395 104.363 21.8395 75.0017C21.8399 45.6411 45.6443 21.8378 75.005 21.8378ZM75.005 25.6398C69.0123 25.6398 63.1542 26.7013 57.5933 28.7908C47.4027 32.6286 38.673 39.8189 32.9373 49.0806C32.7879 49.3121 32.6456 49.5507 32.5046 49.7864C27.9484 57.4136 25.5382 66.175 25.5382 75.1082C25.5384 88.3613 30.7141 100.813 40.1167 110.176C41.5615 111.613 43.1133 112.972 44.7243 114.216C51.6374 119.587 59.8719 123.023 68.5247 124.159L70.1644 124.37V80.5364C70.1644 67.1504 61.9006 55.4549 49.4435 50.9599C51.8848 45.4855 55.9194 41.0438 60.9325 38.3539C64.3341 36.5237 68.0048 35.5941 71.8423 35.594H78.3708C82.3581 35.5941 86.1576 36.6077 89.6668 38.6003L89.9997 38.7867H90.0047C94.6259 41.506 98.354 45.774 100.633 50.9449C88.1445 55.4273 79.8642 67.1262 79.8639 80.5331V124.359L81.4986 124.144C89.1763 123.139 96.52 120.323 102.909 115.954C103.266 115.712 103.623 115.463 103.972 115.208C104.414 114.888 104.852 114.56 105.286 114.223C106.909 112.957 108.461 111.595 109.893 110.171C119.291 100.813 124.47 88.3609 124.47 75.1082C124.47 66.1708 122.062 57.4157 117.505 49.7864C117.364 49.5505 117.221 49.3122 117.076 49.0806C111.494 40.076 103.041 32.9903 93.1874 29.0871L92.9427 28.969H92.8811C87.1941 26.7553 80.9974 25.6398 75.005 25.6398Z" fill="#F0EAE1"/><path fill-rule="evenodd" clip-rule="evenodd" d="M75 0C116.355 0 150 33.6453 150 75C150 116.355 116.355 150 75 150C33.6453 150 0 116.355 0 75C3.52725e-06 33.6453 33.6453 0 75 0ZM75 2.28382C34.8398 2.28382 2.28406 34.8394 2.28382 75.0017C2.28382 115.164 34.8375 147.721 75 147.721C115.162 147.721 147.72 115.164 147.72 75.0017C147.719 34.8394 115.16 2.28382 75 2.28382Z" fill="#F0EAE1"/></g></g></svg>
